<svg width="32" height="33" viewBox="0 0 32 33" fill="none" xmlns="http://www.w3.org/2000/svg">
<rect y="0.734375" width="32" height="32" rx="16" fill="#21345B"/>
<path d="M18.9914 9L19.0352 9.03662C19.1321 9.12213 19.3602 9.34872 19.4066 9.62389C19.4426 9.85262 19.4426 10.0855 19.4066 10.3142C19.4918 10.2404 19.5647 10.1536 19.6224 10.057C19.6681 9.93326 19.7017 9.80546 19.7227 9.67534C19.8752 9.87235 19.9747 10.1048 20.0117 10.3507C20.0283 10.6094 20.0061 10.8692 19.9459 11.1214C20.0453 11.0167 20.1345 10.903 20.2123 10.7816C20.29 10.6153 20.3587 10.4449 20.4183 10.2714C20.5625 10.5256 20.6604 10.8033 20.7073 11.0914C20.7244 11.3629 20.7113 11.6354 20.6685 11.904L20.8724 11.6965C20.9237 11.6431 20.9704 11.5932 20.9921 11.5663C21.0839 11.4125 21.1667 11.2536 21.2401 11.0903C21.3654 11.3915 21.4474 11.7087 21.4839 12.0326C21.493 12.3404 21.4444 12.6473 21.3404 12.9374C21.519 12.8496 21.6906 12.7486 21.8538 12.6351C22.0071 12.4829 22.1512 12.3218 22.2852 12.1527C22.3263 12.4524 22.3404 12.7552 22.3273 13.0574C22.2851 13.3637 22.1872 13.6597 22.0382 13.9311C22.2121 13.8863 22.3828 13.8304 22.5495 13.7639C22.7199 13.6899 23.0887 13.4755 23.0887 13.4755L23.0889 13.5519C23.0867 13.7191 23.0664 14.1205 22.928 14.3481C22.8109 14.5384 22.6766 14.7178 22.5268 14.8841C22.6592 14.8784 22.7911 14.8637 22.9215 14.8401C23.0919 14.7853 23.2533 14.7058 23.4004 14.6043C23.3658 14.8807 23.2902 15.1506 23.1761 15.405C23.0297 15.6477 22.8596 15.8753 22.6681 16.0847C22.7976 16.1109 22.9296 16.1235 23.0618 16.1222C23.2205 16.105 23.3765 16.069 23.5266 16.015C23.4773 16.2328 23.3857 16.4389 23.257 16.6217C23.113 16.7689 22.9492 16.8953 22.7704 16.9975L22.6929 17.0398L23.106 17.072C23.2472 17.0722 23.3882 17.0614 23.5277 17.0398C23.4758 17.326 23.3302 17.5872 23.1135 17.7827C22.8902 17.9636 22.6338 18.1001 22.3586 18.1847C22.4895 18.2454 22.627 18.291 22.7684 18.3208C22.8971 18.3415 23.0273 18.3519 23.1577 18.3519C23.0895 18.5568 22.9519 18.7318 22.7684 18.8472C22.6194 18.9499 22.4471 19.0143 22.2669 19.0347C22.3502 19.0729 22.4384 19.0996 22.529 19.1141L22.5829 19.1171C22.6988 19.1212 22.8525 19.1141 22.8525 19.1141L22.7718 19.2067C22.6086 19.3861 22.214 19.7822 21.7352 19.9974C21.2444 20.218 20.6735 20.2253 20.443 20.2175C20.4788 20.2758 20.5122 20.3354 20.5434 20.3962C20.6201 20.6047 20.6724 20.8213 20.6993 21.0415L20.7106 21.1519V23.3441C20.6597 23.4945 20.5637 23.6258 20.4356 23.7203C20.3253 23.7833 20.1986 23.8106 20.0728 23.7993L20.0257 23.7932C19.9011 23.7881 19.7807 23.7467 19.6795 23.6743C19.5895 23.5829 19.5248 23.4699 19.4919 23.3462V21.6064C19.4957 21.4059 19.4654 21.2062 19.4023 21.0158C19.3162 20.8497 19.2112 20.694 19.0896 20.5516L16.2638 16.9069V16.9015V16.8994L13.4381 20.5494C13.3163 20.692 13.2111 20.8477 13.1243 21.0136C13.0702 21.1769 13.0403 21.3469 13.0352 21.5184L13.0347 21.6043V23.3462C13.0015 23.4701 12.9369 23.5834 12.8471 23.6753C12.7604 23.7369 12.66 23.7757 12.5549 23.7889L12.502 23.7932C12.3606 23.8169 12.2154 23.7911 12.091 23.7203C11.9625 23.6259 11.8661 23.4946 11.8149 23.3441V21.1508C11.8369 20.8923 11.8932 20.6379 11.9821 20.394C12.0135 20.3329 12.0471 20.273 12.0826 20.2143L12.015 20.2158C11.7533 20.219 11.2403 20.1951 10.7925 19.9942C10.1594 19.7101 9.67515 19.1109 9.67515 19.1109L9.79406 19.1145C9.86066 19.1157 9.94155 19.1157 9.99871 19.1109C10.0893 19.0964 10.1775 19.0697 10.2608 19.0315C10.1033 19.0142 9.95183 18.9627 9.81706 18.8808L9.76036 18.8439C9.57656 18.7291 9.43857 18.5545 9.36993 18.3498C9.50036 18.3491 9.63053 18.3383 9.75928 18.3176C9.90087 18.2879 10.0387 18.2426 10.1702 18.1825C9.89487 18.0975 9.63856 17.9607 9.41523 17.7795C9.19829 17.5854 9.05226 17.3252 9 17.0398C9.13915 17.0614 9.27979 17.0722 9.42062 17.072L9.8337 17.0398C9.62478 16.9307 9.43443 16.7896 9.26963 16.6217C9.14065 16.439 9.04903 16.2328 9 16.015C9.15013 16.0689 9.30617 16.1049 9.46484 16.1222C9.59705 16.1242 9.72908 16.1116 9.8585 16.0847C9.66734 15.8757 9.49754 15.6484 9.3516 15.4061C9.23692 15.1518 9.16095 14.8819 9.12619 14.6054C9.27358 14.7062 9.43487 14.7852 9.60505 14.8401C9.73546 14.8637 9.86735 14.8784 9.99979 14.8841C9.85003 14.7178 9.71574 14.5384 9.59858 14.3481C9.42062 14.0576 9.44219 13.4776 9.44219 13.4776L9.64833 13.5942C9.76197 13.6572 9.89679 13.7295 9.98145 13.7671C10.1467 13.8324 10.3161 13.8872 10.4884 13.9311C10.3389 13.6605 10.2403 13.3652 10.1972 13.0596C10.1842 12.7573 10.1986 12.4545 10.2403 12.1548C10.3746 12.3238 10.5186 12.4849 10.6717 12.6372C10.835 12.7509 11.0066 12.8523 11.1851 12.9406C11.0819 12.6503 11.0332 12.3436 11.0416 12.0358C11.0787 11.7116 11.1611 11.3941 11.2865 11.0925C11.3611 11.2571 11.445 11.4174 11.5378 11.5727L11.567 11.6066C11.6573 11.7068 11.8613 11.9104 11.8613 11.9104C11.8185 11.6418 11.8059 11.3693 11.8236 11.0979C11.8704 10.81 11.9683 10.5327 12.1126 10.2789C12.1717 10.4525 12.2401 10.6228 12.3175 10.7891C12.395 10.9089 12.4836 11.0212 12.582 11.1247L12.585 11.1279C12.5244 10.8746 12.5018 10.6138 12.5181 10.3539C12.5554 10.1081 12.6548 9.87571 12.8072 9.67856C12.8282 9.80832 12.8618 9.93576 12.9075 10.0591C12.9655 10.1555 13.0383 10.2423 13.1232 10.3164C13.0875 10.0876 13.0875 9.85478 13.1232 9.62603C13.1793 9.27014 13.5406 9 13.5406 9L13.5382 9.16745C13.5373 9.31086 13.5391 9.51918 13.5524 9.6807C13.5703 9.79817 13.5974 9.9139 13.6334 10.0269C13.6311 9.93032 13.6482 9.8338 13.684 9.74288C13.7843 9.51026 14.5393 9.1072 14.5393 9.1072L14.1963 9.90738C13.9001 10.6045 13.462 11.65 13.0874 12.602L12.8605 13.1874C12.5617 13.9881 11.5169 17.0196 12.4556 17.9424C13.5406 19.009 13.3874 17.0323 13.3583 16.8887C13.3255 16.7578 13.2852 16.629 13.2375 16.5027C13.4701 16.4662 13.708 16.4845 13.9321 16.5563C14.1339 16.6358 14.3065 16.7738 14.4277 16.9517L14.4595 17.0012L15.4194 15.7073L14.9265 14.7511L14.961 12.0995C14.9642 11.9146 14.9668 11.7975 14.9685 11.7925C14.9906 11.7282 15.0221 11.6676 15.0621 11.6128L15.0936 11.5727C15.1404 11.507 15.2136 11.4647 15.2942 11.457L16.1377 14.005C15.9654 14.0396 15.8491 14.2005 15.8713 14.3738C15.8917 14.6342 16.1463 14.6626 16.2342 14.6646L16.2934 14.6637C16.3811 14.6605 16.635 14.632 16.6564 14.3717C16.6772 14.2092 16.5763 14.0576 16.4217 14.0108L16.39 14.0029L17.2324 11.4559C17.3135 11.4639 17.3871 11.5065 17.434 11.5727C17.4889 11.6386 17.5313 11.7137 17.5591 11.7946L17.5613 11.8425C17.5673 12.0478 17.5784 12.8749 17.5873 13.5952L17.6012 14.7533L17.1072 15.7095L18.0704 17.0023C18.1927 16.8007 18.3784 16.6447 18.5988 16.5585C18.8225 16.4867 19.0601 16.4683 19.2923 16.5049C19.2453 16.6309 19.2053 16.7594 19.1726 16.8897L19.1669 16.9285C19.1296 17.2391 19.0489 18.9525 20.0743 17.9445C21.1582 16.879 19.5922 12.9931 19.5922 12.9931L19.4714 12.6824C18.8326 11.0538 17.9884 9.11363 17.9884 9.11363L18.1079 9.18024C18.3249 9.30451 18.7682 9.57485 18.8426 9.74931C18.8796 9.84239 18.8967 9.94146 18.8936 10.0403C18.9314 9.92308 18.9599 9.80283 18.9785 9.6807L18.986 9.56277C18.9987 9.30383 18.9914 9 18.9914 9ZM16.2638 17.7387C16.2916 17.7404 16.3176 17.7518 16.3375 17.7705L16.3512 17.7859L16.3846 18.4934L16.3786 18.5085C16.3666 18.5356 16.3366 18.5899 16.2897 18.5899C16.2428 18.5899 16.2092 18.5428 16.1954 18.5193L16.1883 18.5063V17.7923C16.2011 17.7616 16.2304 17.7407 16.2638 17.7387ZM16.5194 17.7452C16.5471 17.7437 16.5742 17.7516 16.5965 17.7673L16.6122 17.7805L16.7201 18.4098L16.7153 18.424C16.7055 18.4497 16.6804 18.5017 16.6359 18.5073C16.5989 18.512 16.566 18.4861 16.5466 18.4661L16.5281 18.4441L16.4493 17.8009C16.4606 17.7709 16.4875 17.7495 16.5194 17.7452ZM15.9942 17.7441C16.02 17.7509 16.0426 17.7659 16.0588 17.7866L16.0697 17.8031L15.977 18.4344L15.9627 18.4548C15.9444 18.4777 15.9101 18.5106 15.8691 18.502C15.823 18.4923 15.7981 18.4441 15.7886 18.4206L15.7839 18.4076L15.9112 17.7763C15.9269 17.7562 15.9504 17.7444 15.9754 17.743L15.9942 17.7441ZM15.7559 17.7055C15.7738 17.7135 15.7883 17.7273 15.7973 17.7443L15.8044 17.7623L15.648 18.2983L15.641 18.3083C15.6275 18.326 15.596 18.3599 15.5596 18.3487C15.5232 18.3374 15.5141 18.2948 15.5118 18.2742L15.511 18.2629L15.6911 17.7269C15.7038 17.7121 15.7223 17.7038 15.7415 17.7039L15.7559 17.7055ZM16.7632 17.7055C16.7818 17.7015 16.801 17.7035 16.8181 17.7111L16.8344 17.7205L17.008 18.2479L17.007 18.2605C17.0044 18.2834 16.9951 18.3302 16.9627 18.339C16.9358 18.3464 16.908 18.3278 16.8909 18.3128L16.8743 18.2962L16.7222 17.7602C16.724 17.7356 16.74 17.7142 16.7632 17.7055Z" fill="#575D6A"/>
</svg>
