<svg width="17" height="18" viewBox="0 0 17 18" fill="none" xmlns="http://www.w3.org/2000/svg">
<g clip-path="url(#clip0_6_2461)">
<path d="M8.57031 17.1562C10.7335 17.1562 12.8081 16.2969 14.3377 14.7673C15.8672 13.2377 16.7266 11.1632 16.7266 9C16.7266 6.83683 15.8672 4.76225 14.3377 3.23266C12.8081 1.70307 10.7335 0.84375 8.57031 0.84375C6.40714 0.84375 4.33257 1.70307 2.80297 3.23266C1.27338 4.76225 0.414063 6.83683 0.414062 9C0.414063 11.1632 1.27338 13.2377 2.80297 14.7673C4.33257 16.2969 6.40714 17.1562 8.57031 17.1562Z" fill="#CF9619"/>
<path d="M8.57031 16.3406C13.0746 16.3406 16.7266 12.8712 16.7266 8.59219C16.7266 4.31321 13.0746 0.84375 8.57031 0.84375C4.06602 0.84375 0.414062 4.31321 0.414062 8.59219C0.414062 12.8712 4.06602 16.3406 8.57031 16.3406Z" fill="#FFE063"/>
<g filter="url(#filter0_d_6_2461)">
<path d="M8.57041 15.1174C10.3009 15.1174 11.9606 14.4299 13.1843 13.2063C14.408 11.9826 15.0954 10.3229 15.0954 8.59238C15.0954 6.86185 14.408 5.20219 13.1843 3.97851C11.9606 2.75484 10.3009 2.06738 8.57041 2.06738C6.83987 2.06738 5.18021 2.75484 3.95654 3.97851C2.73286 5.20219 2.04541 6.86185 2.04541 8.59238C2.04541 10.3229 2.73286 11.9826 3.95654 13.2063C5.18021 14.4299 6.83987 15.1174 8.57041 15.1174Z" fill="#EBBD31"/>
</g>
<path fill-rule="evenodd" clip-rule="evenodd" d="M11.8328 6.18531C11.8328 5.04343 4.49219 5.42576 4.49219 5.42576L7.76284 6.18531L5.36593 12.6705L7.76488 9.26735L8.52239 8.99004L11.0019 12.6705L9.52357 8.30491C9.52357 8.30491 11.8338 7.32616 11.8338 6.18429L11.8328 6.18531ZM8.49691 7.62794L9.06377 6.30969C9.06377 6.30969 10.3321 6.30969 10.3321 6.63594C10.3321 6.96117 8.49691 7.62794 8.49691 7.62794Z" fill="#BD6D01"/>
</g>
<defs>
<filter id="filter0_d_6_2461" x="2.04541" y="2.06738" width="13.0498" height="14.0693" filterUnits="userSpaceOnUse" color-interpolation-filters="sRGB">
<feFlood flood-opacity="0" result="BackgroundImageFix"/>
<feColorMatrix in="SourceAlpha" type="matrix" values="0 0 0 0 0 0 0 0 0 0 0 0 0 0 0 0 0 0 127 0" result="hardAlpha"/>
<feOffset dy="1.01953"/>
<feComposite in2="hardAlpha" operator="out"/>
<feColorMatrix type="matrix" values="0 0 0 0 0.811765 0 0 0 0 0.588235 0 0 0 0 0.0980392 0 0 0 1 0"/>
<feBlend mode="normal" in2="BackgroundImageFix" result="effect1_dropShadow_6_2461"/>
<feBlend mode="normal" in="SourceGraphic" in2="effect1_dropShadow_6_2461" result="shape"/>
</filter>
<clipPath id="clip0_6_2461">
<rect width="16.3125" height="16.3125" fill="white" transform="translate(0.414062 0.84375)"/>
</clipPath>
</defs>
</svg>
