<svg width="342" height="138" viewBox="0 0 342 138" fill="none" xmlns="http://www.w3.org/2000/svg">
<g filter="url(#filter0_di_6_2627)">
<rect x="27" y="0.0625" width="288" height="100" rx="8" fill="#733193" shape-rendering="crispEdges"/>
<rect x="103.719" y="10.0625" width="30" height="30" rx="15" fill="#DE4C41"/>
<g clip-path="url(#clip0_6_2627)">
<path d="M132.433 11.6681C132.435 12.3921 132.385 13.1152 132.283 13.832C132.132 14.6165 131.414 15.6232 131.414 15.6232C130.736 16.395 129.977 17.0906 129.15 17.6975L125.587 20.3611C125.144 20.0259 124.533 20.0259 124.089 20.3611C123.304 20.9361 123.614 21.7297 123.813 21.8712C124.013 22.0127 124.659 21.9392 124.659 21.9392L124.64 22.3208C124.368 22.4212 124.076 22.4549 123.788 22.4193C123.46 22.3781 123.19 21.984 123.19 21.984L122.807 21.5093C122.227 22.1081 121.623 22.6814 120.994 23.2275C122.107 24.1851 123.369 25.3949 123.493 25.514L123.503 25.5236L124.529 25.4376C124.545 25.4959 124.55 25.5566 124.543 25.6167C124.527 25.692 123.852 26.5715 123.852 26.5715C123.906 26.7736 123.86 26.9893 123.729 27.1518C123.602 27.2962 123.412 27.369 123.222 27.3471C122.987 27.5959 122.739 27.8309 122.477 28.0511C122.419 28.0655 122.357 28.0655 122.299 28.0511L122.187 27.0766C122.187 27.0766 120.473 25.9722 118.934 24.8565C117.393 25.972 115.679 27.0766 115.679 27.0766L115.567 28.0511C115.509 28.0662 115.448 28.0662 115.389 28.0511C115.127 27.8309 114.878 27.5959 114.643 27.3471C114.452 27.3687 114.263 27.2959 114.135 27.1518C114.005 26.9889 113.959 26.7736 114.012 26.5715C114.012 26.5715 113.337 25.692 113.321 25.6167C113.316 25.5565 113.321 25.4959 113.337 25.4376L114.363 25.5236L114.373 25.514C114.497 25.3949 115.759 24.1842 116.872 23.2259C116.244 22.6808 115.64 22.1079 115.061 21.5093L114.678 21.984C114.678 21.984 114.406 22.3781 114.08 22.4193C113.792 22.4549 113.5 22.4212 113.228 22.3208L113.207 21.9392C113.207 21.9392 113.855 22.0127 114.055 21.8712C114.254 21.7297 114.564 20.9361 113.777 20.3611C113.334 20.0268 112.724 20.0268 112.281 20.3611L108.718 17.6975C107.891 17.0902 107.131 16.3948 106.452 15.6232C106.452 15.6232 105.734 14.6165 105.585 13.832C105.482 13.1153 105.432 12.3921 105.433 11.6681L107.209 13.3788C107.209 13.3788 110.489 15.7898 112.375 17.0168C113.503 17.748 114.569 18.5718 115.562 19.4798C115.562 19.4798 116.376 19.0947 116.524 18.8475C116.672 18.6003 116.47 18.2295 116.47 18.2295L116.711 18.1883C116.711 18.1883 117.112 18.6344 117.126 18.9586C117.14 19.2828 116.716 19.5873 116.716 19.5873L116.278 20.0262C116.278 20.0262 117.698 20.8652 118.932 21.6792C120.167 20.8652 121.588 20.0262 121.588 20.0262L121.148 19.5891C121.148 19.5891 120.724 19.2846 120.737 18.9604C120.749 18.6361 121.152 18.1901 121.152 18.1901L121.394 18.2313C121.394 18.2313 121.191 18.6021 121.339 18.8493C121.487 19.0965 122.306 19.4888 122.306 19.4888C123.298 18.581 124.364 17.7572 125.491 17.0258C127.378 15.7988 130.657 13.3877 130.657 13.3877L132.433 11.6681ZM118.984 2.34814L120.712 7.69508H126.48L121.818 10.8208L123.578 16.4132L118.984 12.9059C118.984 12.9059 114.288 16.2735 114.185 16.4132L116.091 10.9874L111.319 7.69508H117.051L118.984 2.34814Z" fill="#B3291E"/>
</g>
<rect x="149.719" y="10.0625" width="30" height="30" rx="15" fill="#DE4C41"/>
<path fill-rule="evenodd" clip-rule="evenodd" d="M176.195 28.3532C175.771 27.8411 175.357 27.3235 174.938 26.8083L174.862 26.8344C174.906 27.1844 174.945 27.5355 174.994 27.8848C175.165 29.2 175.758 30.4303 176.69 31.4024C176.716 31.4293 176.741 31.4574 176.767 31.4858C176.944 31.6819 177.131 31.8895 177.473 31.7754C177.493 31.7688 177.521 31.7845 177.548 31.8002C177.561 31.8075 177.574 31.8147 177.586 31.8198C177.897 31.9516 178.014 31.9067 178.112 31.5932C178.161 31.4489 178.189 31.2989 178.197 31.1472C178.202 30.9366 178.209 30.7256 178.216 30.5147C178.237 29.9263 178.257 29.3376 178.224 28.7517C178.065 25.9122 177.872 23.0751 177.683 20.2373C177.67 20.0344 177.718 19.9396 177.907 19.8412C178.754 19.4023 179.154 18.4385 178.854 17.5551C178.563 16.6807 177.678 16.1231 176.733 16.218C175.788 16.3129 175.04 17.0345 174.941 17.9481C174.844 18.8703 175.438 19.7292 176.356 19.9949C176.562 20.0532 176.639 20.1328 176.658 20.3351C176.786 21.6747 176.953 23.0119 177.057 24.3533C177.155 25.6236 177.197 26.8964 177.25 28.1722C177.252 28.3847 177.223 28.5965 177.163 28.801C177.098 29.0489 176.949 29.0963 176.752 28.9274C176.55 28.7511 176.364 28.5591 176.195 28.3532ZM161.091 19.1478C161.281 19.1227 161.475 19.1556 161.645 19.242C162.309 19.6101 162.962 19.9971 163.604 20.4027C163.776 20.5119 163.908 20.5462 164.102 20.4856C166.035 19.8857 168.011 19.5144 170.042 19.4878C171.578 19.4674 173.093 19.6078 174.517 20.2438L174.749 20.3513L175.257 20.5988L172.759 23.2228L176.232 24.0311L175.808 24.718C175.738 24.8274 175.665 24.9336 175.587 25.0356C174.697 26.1992 173.533 27.0534 172.269 27.7807C170.128 29.0098 167.82 29.8007 165.39 30.2563C165.01 30.3278 164.627 30.384 164.25 30.4665C164.161 30.4864 164.074 30.5723 164.015 30.649C163.728 31.0214 163.5 31.4505 163.161 31.7686C162.01 32.8513 160.565 33.3807 159.008 33.7653L159.424 33.0086C159.789 32.339 160.106 31.6633 160.08 30.8721L156.542 30.6412C156.306 31.6837 155.913 32.6801 154.865 33.2651C154.417 33.5179 153.892 33.6078 153.384 33.519C153.878 29.7874 152.932 26.5157 150.409 23.6535C150.97 23.1349 151.671 22.9261 152.47 23.0631C153.453 23.2311 154.189 23.8044 154.827 24.5196L154.962 24.6789L155.203 24.9763L158.833 22.6183C158.427 22.3364 157.981 22.1062 157.52 21.8866L156.586 21.4492C156.429 21.3746 156.273 21.2981 156.118 21.2182L157.149 20.7795C157.317 20.7069 157.482 20.6332 157.646 20.5565C158.463 20.1747 159.264 19.7581 160.089 19.3931C160.398 19.2557 160.751 19.1956 161.091 19.1478ZM168.992 21.1879C169.244 20.734 169.671 20.3978 170.176 20.2537C170.947 20.0302 171.779 20.2858 172.284 20.9013C172.788 21.5168 172.866 22.3707 172.48 23.0642C172.094 23.7578 171.321 24.1542 170.522 24.0683C169.723 23.9824 169.055 23.4313 168.83 22.6722C168.681 22.176 168.739 21.6418 168.992 21.1879ZM170.447 20.4063C170.897 20.2685 171.376 20.5147 171.518 20.9569C171.656 21.4026 171.401 21.8741 170.948 22.01C170.494 22.146 170.015 21.8948 169.877 21.4491C169.744 21.0065 169.998 20.5414 170.447 20.4063Z" fill="#B3291E"/>
<path d="M199.019 27.0066L200.945 19.1906H201.988L202.054 20.8375L199.995 28.8594H198.893L199.019 27.0066ZM197.804 19.1906L199.384 26.9801V28.8594H198.182L195.991 19.1906H197.804ZM204.053 26.9469L205.607 19.1906H207.426L205.235 28.8594H204.033L204.053 26.9469ZM202.486 19.1906L204.411 27.0332L204.524 28.8594H203.422L201.37 20.8309L201.45 19.1906H202.486ZM210.308 21.6742V28.8594H208.548V21.6742H210.308ZM208.429 19.7949C208.429 19.5337 208.517 19.3168 208.695 19.1441C208.876 18.9715 209.12 18.8852 209.425 18.8852C209.73 18.8852 209.972 18.9715 210.149 19.1441C210.33 19.3168 210.421 19.5337 210.421 19.7949C210.421 20.0517 210.33 20.2664 210.149 20.4391C209.972 20.6117 209.73 20.698 209.425 20.698C209.12 20.698 208.876 20.6117 208.695 20.4391C208.517 20.2664 208.429 20.0517 208.429 19.7949ZM213.702 23.2082V28.8594H211.948V21.6742H213.595L213.702 23.2082ZM213.423 25.0078H212.905C212.909 24.4854 212.98 24.0117 213.117 23.5867C213.254 23.1617 213.447 22.7965 213.695 22.491C213.947 22.1855 214.246 21.9509 214.591 21.7871C214.937 21.6233 215.322 21.5414 215.747 21.5414C216.092 21.5414 216.404 21.5901 216.683 21.6875C216.962 21.7849 217.201 21.9398 217.4 22.1523C217.604 22.3648 217.759 22.6437 217.865 22.9891C217.976 23.3299 218.031 23.7505 218.031 24.2508V28.8594H216.265V24.2375C216.265 23.9099 216.216 23.6509 216.119 23.4605C216.026 23.2702 215.889 23.1352 215.707 23.0555C215.53 22.9758 215.311 22.9359 215.05 22.9359C214.78 22.9359 214.543 22.9913 214.339 23.102C214.14 23.2082 213.972 23.3565 213.834 23.5469C213.702 23.7372 213.6 23.9564 213.529 24.2043C213.458 24.4522 213.423 24.7201 213.423 25.0078ZM229.42 27.4781V28.8594H222.872V27.6773L226.013 24.284C226.341 23.9121 226.6 23.5889 226.79 23.3145C226.981 23.04 227.116 22.7921 227.195 22.5707C227.279 22.3449 227.321 22.1302 227.321 21.9266C227.321 21.6299 227.268 21.371 227.162 21.1496C227.056 20.9238 226.901 20.749 226.697 20.625C226.498 20.501 226.252 20.4391 225.96 20.4391C225.637 20.4391 225.36 20.5143 225.13 20.6648C224.904 20.8109 224.732 21.0146 224.612 21.2758C224.497 21.537 224.439 21.8358 224.439 22.1723H222.68C222.68 21.6012 222.813 21.081 223.078 20.6117C223.344 20.138 223.724 19.7595 224.22 19.4762C224.716 19.1928 225.305 19.0512 225.987 19.0512C226.651 19.0512 227.213 19.1618 227.673 19.3832C228.134 19.6001 228.484 19.91 228.723 20.3129C228.962 20.7158 229.081 21.1961 229.081 21.7539C229.081 22.0638 229.03 22.3693 228.929 22.6703C228.827 22.9714 228.683 23.2702 228.497 23.5668C228.315 23.859 228.098 24.1556 227.846 24.4566C227.594 24.7577 227.313 25.0654 227.003 25.3797L225.117 27.4781H229.42ZM232.109 21.6742L233.391 23.9586L234.693 21.6742H236.598L234.487 25.1937L236.685 28.8594H234.779L233.404 26.4621L232.023 28.8594H230.117L232.309 25.1937L230.21 21.6742H232.109Z" fill="black"/>
<g filter="url(#filter1_dii_6_2627)">
<rect x="27" y="50.0625" width="288" height="50" rx="8" fill="#DE4C41" shape-rendering="crispEdges"/>
<path d="M145.775 75.8506H143.185V74.4902H145.775C146.227 74.4902 146.591 74.4173 146.869 74.2715C147.147 74.1257 147.35 73.9251 147.478 73.6699C147.61 73.4102 147.676 73.1139 147.676 72.7812C147.676 72.4668 147.61 72.1729 147.478 71.8994C147.35 71.6214 147.147 71.3981 146.869 71.2295C146.591 71.0609 146.227 70.9766 145.775 70.9766H143.711V79.5625H141.995V69.6094H145.775C146.546 69.6094 147.2 69.7461 147.737 70.0195C148.28 70.2884 148.692 70.6621 148.975 71.1406C149.257 71.6146 149.398 72.1569 149.398 72.7676C149.398 73.4102 149.257 73.9616 148.975 74.4219C148.692 74.8822 148.28 75.2354 147.737 75.4814C147.2 75.7275 146.546 75.8506 145.775 75.8506ZM152.536 69.0625V79.5625H150.882V69.0625H152.536ZM158.511 78.0791V74.5518C158.511 74.2874 158.463 74.0596 158.367 73.8682C158.271 73.6768 158.126 73.5286 157.93 73.4238C157.738 73.319 157.497 73.2666 157.205 73.2666C156.936 73.2666 156.704 73.3122 156.508 73.4033C156.312 73.4945 156.159 73.6175 156.05 73.7725C155.94 73.9274 155.886 74.1029 155.886 74.2988H154.245C154.245 74.0072 154.316 73.7246 154.457 73.4512C154.598 73.1777 154.803 72.9339 155.072 72.7197C155.341 72.5055 155.662 72.3369 156.036 72.2139C156.41 72.0908 156.829 72.0293 157.294 72.0293C157.85 72.0293 158.342 72.1227 158.771 72.3096C159.203 72.4964 159.543 72.779 159.789 73.1572C160.04 73.5309 160.165 74.0003 160.165 74.5654V77.8535C160.165 78.1908 160.188 78.4938 160.233 78.7627C160.284 79.027 160.354 79.2572 160.445 79.4531V79.5625H158.757C158.679 79.3848 158.618 79.1592 158.572 78.8857C158.531 78.6077 158.511 78.3389 158.511 78.0791ZM158.75 75.0645L158.764 76.083H157.581C157.276 76.083 157.007 76.1126 156.774 76.1719C156.542 76.2266 156.348 76.3086 156.193 76.418C156.038 76.5273 155.922 76.6595 155.845 76.8145C155.767 76.9694 155.729 77.1449 155.729 77.3408C155.729 77.5368 155.774 77.7168 155.865 77.8809C155.956 78.0404 156.089 78.1657 156.262 78.2568C156.439 78.348 156.654 78.3936 156.904 78.3936C157.242 78.3936 157.535 78.3252 157.786 78.1885C158.041 78.0472 158.242 77.8763 158.388 77.6758C158.534 77.4707 158.611 77.277 158.62 77.0947L159.153 77.8262C159.099 78.013 159.005 78.2135 158.873 78.4277C158.741 78.6419 158.568 78.847 158.354 79.043C158.144 79.2344 157.891 79.3916 157.595 79.5146C157.303 79.6377 156.966 79.6992 156.583 79.6992C156.1 79.6992 155.669 79.6035 155.291 79.4121C154.913 79.2161 154.617 78.9541 154.402 78.626C154.188 78.2933 154.081 77.9173 154.081 77.498C154.081 77.1061 154.154 76.7598 154.3 76.459C154.45 76.1536 154.669 75.8984 154.956 75.6934C155.248 75.4883 155.603 75.3333 156.022 75.2285C156.442 75.1191 156.92 75.0645 157.458 75.0645H158.75ZM164.909 78.3867C165.178 78.3867 165.42 78.3343 165.634 78.2295C165.853 78.1201 166.028 77.9697 166.16 77.7783C166.297 77.5869 166.372 77.3659 166.386 77.1152H167.938C167.928 77.5938 167.787 78.029 167.514 78.4209C167.24 78.8128 166.878 79.125 166.427 79.3574C165.976 79.5853 165.477 79.6992 164.93 79.6992C164.365 79.6992 163.872 79.6035 163.453 79.4121C163.034 79.2161 162.685 78.9473 162.407 78.6055C162.129 78.2637 161.92 77.8695 161.778 77.4229C161.642 76.9762 161.573 76.4977 161.573 75.9873V75.748C161.573 75.2376 161.642 74.7591 161.778 74.3125C161.92 73.8613 162.129 73.4648 162.407 73.123C162.685 72.7812 163.034 72.5146 163.453 72.3232C163.872 72.1273 164.362 72.0293 164.923 72.0293C165.515 72.0293 166.035 72.1478 166.481 72.3848C166.928 72.6172 167.279 72.943 167.534 73.3623C167.794 73.777 167.928 74.2601 167.938 74.8115H166.386C166.372 74.5381 166.304 74.292 166.181 74.0732C166.062 73.8499 165.894 73.6722 165.675 73.54C165.461 73.4079 165.203 73.3418 164.902 73.3418C164.57 73.3418 164.294 73.4102 164.075 73.5469C163.856 73.679 163.686 73.8613 163.562 74.0938C163.439 74.3216 163.351 74.5791 163.296 74.8662C163.246 75.1488 163.221 75.4427 163.221 75.748V75.9873C163.221 76.2926 163.246 76.5889 163.296 76.876C163.346 77.1631 163.433 77.4206 163.556 77.6484C163.683 77.8717 163.856 78.0518 164.075 78.1885C164.294 78.3206 164.572 78.3867 164.909 78.3867ZM172.463 79.6992C171.916 79.6992 171.422 79.6104 170.979 79.4326C170.542 79.2503 170.168 78.9974 169.858 78.6738C169.553 78.3503 169.318 77.9697 169.154 77.5322C168.99 77.0947 168.908 76.623 168.908 76.1172V75.8438C168.908 75.265 168.993 74.7409 169.161 74.2715C169.33 73.8021 169.564 73.401 169.865 73.0684C170.166 72.7311 170.521 72.4736 170.932 72.2959C171.342 72.1182 171.786 72.0293 172.265 72.0293C172.793 72.0293 173.256 72.1182 173.652 72.2959C174.049 72.4736 174.377 72.7243 174.637 73.0479C174.901 73.3669 175.097 73.7474 175.225 74.1895C175.357 74.6315 175.423 75.1191 175.423 75.6523V76.3564H169.708V75.1738H173.796V75.0439C173.787 74.7477 173.728 74.4697 173.618 74.21C173.513 73.9502 173.352 73.7406 173.133 73.5811C172.914 73.4215 172.622 73.3418 172.258 73.3418C171.984 73.3418 171.741 73.401 171.526 73.5195C171.317 73.6335 171.141 73.7998 171 74.0186C170.859 74.2373 170.749 74.5016 170.672 74.8115C170.599 75.1169 170.562 75.4609 170.562 75.8438V76.1172C170.562 76.4408 170.606 76.7415 170.692 77.0195C170.784 77.293 170.916 77.5322 171.089 77.7373C171.262 77.9424 171.472 78.1042 171.718 78.2227C171.964 78.3366 172.244 78.3936 172.559 78.3936C172.955 78.3936 173.308 78.3138 173.618 78.1543C173.928 77.9948 174.197 77.7692 174.425 77.4775L175.293 78.3184C175.133 78.5508 174.926 78.7741 174.671 78.9883C174.416 79.1979 174.104 79.3688 173.734 79.501C173.37 79.6331 172.946 79.6992 172.463 79.6992ZM184.091 75.0645H181.555L181.541 73.8135H183.756C184.13 73.8135 184.446 73.7588 184.706 73.6494C184.97 73.5355 185.171 73.3737 185.308 73.1641C185.444 72.9499 185.513 72.6924 185.513 72.3916C185.513 72.0589 185.449 71.7878 185.321 71.5781C185.194 71.3685 184.998 71.2158 184.733 71.1201C184.474 71.0244 184.141 70.9766 183.735 70.9766H182.074V79.5625H180.358V69.6094H183.735C184.282 69.6094 184.77 69.6618 185.198 69.7666C185.631 69.8714 185.998 70.0355 186.299 70.2588C186.604 70.4775 186.834 70.7555 186.989 71.0928C187.149 71.43 187.229 71.8311 187.229 72.2959C187.229 72.7061 187.131 73.082 186.935 73.4238C186.739 73.7611 186.449 74.0368 186.066 74.251C185.684 74.4652 185.207 74.5928 184.638 74.6338L184.091 75.0645ZM184.016 79.5625H181.015L181.787 78.2021H184.016C184.403 78.2021 184.727 78.1383 184.986 78.0107C185.246 77.8786 185.44 77.6986 185.567 77.4707C185.7 77.2383 185.766 76.9671 185.766 76.6572C185.766 76.3337 185.709 76.0534 185.595 75.8164C185.481 75.5749 185.301 75.3903 185.055 75.2627C184.809 75.1305 184.487 75.0645 184.091 75.0645H182.163L182.177 73.8135H184.686L185.075 74.2852C185.622 74.3034 186.071 74.4242 186.422 74.6475C186.777 74.8708 187.042 75.1602 187.215 75.5156C187.388 75.8711 187.475 76.2539 187.475 76.6641C187.475 77.2975 187.336 77.8285 187.058 78.2568C186.784 78.6852 186.39 79.0111 185.875 79.2344C185.36 79.4531 184.74 79.5625 184.016 79.5625ZM192.301 79.6992C191.754 79.6992 191.259 79.6104 190.817 79.4326C190.38 79.2503 190.006 78.9974 189.696 78.6738C189.391 78.3503 189.156 77.9697 188.992 77.5322C188.828 77.0947 188.746 76.623 188.746 76.1172V75.8438C188.746 75.265 188.83 74.7409 188.999 74.2715C189.168 73.8021 189.402 73.401 189.703 73.0684C190.004 72.7311 190.359 72.4736 190.77 72.2959C191.18 72.1182 191.624 72.0293 192.103 72.0293C192.631 72.0293 193.094 72.1182 193.49 72.2959C193.887 72.4736 194.215 72.7243 194.475 73.0479C194.739 73.3669 194.935 73.7474 195.062 74.1895C195.195 74.6315 195.261 75.1191 195.261 75.6523V76.3564H189.546V75.1738H193.634V75.0439C193.625 74.7477 193.565 74.4697 193.456 74.21C193.351 73.9502 193.189 73.7406 192.971 73.5811C192.752 73.4215 192.46 73.3418 192.096 73.3418C191.822 73.3418 191.578 73.401 191.364 73.5195C191.155 73.6335 190.979 73.7998 190.838 74.0186C190.697 74.2373 190.587 74.5016 190.51 74.8115C190.437 75.1169 190.4 75.4609 190.4 75.8438V76.1172C190.4 76.4408 190.444 76.7415 190.53 77.0195C190.621 77.293 190.754 77.5322 190.927 77.7373C191.1 77.9424 191.31 78.1042 191.556 78.2227C191.802 78.3366 192.082 78.3936 192.396 78.3936C192.793 78.3936 193.146 78.3138 193.456 78.1543C193.766 77.9948 194.035 77.7692 194.263 77.4775L195.131 78.3184C194.971 78.5508 194.764 78.7741 194.509 78.9883C194.254 79.1979 193.941 79.3688 193.572 79.501C193.208 79.6331 192.784 79.6992 192.301 79.6992ZM199.937 72.166V73.3691H195.767V72.166H199.937ZM196.97 70.3545H198.617V77.5186C198.617 77.7464 198.649 77.9219 198.713 78.0449C198.781 78.1634 198.875 78.2432 198.993 78.2842C199.112 78.3252 199.251 78.3457 199.41 78.3457C199.524 78.3457 199.633 78.3389 199.738 78.3252C199.843 78.3115 199.927 78.2979 199.991 78.2842L199.998 79.542C199.861 79.583 199.702 79.6195 199.52 79.6514C199.342 79.6833 199.137 79.6992 198.904 79.6992C198.526 79.6992 198.191 79.6331 197.899 79.501C197.608 79.3643 197.38 79.1432 197.216 78.8379C197.052 78.5326 196.97 78.127 196.97 77.6211V70.3545Z" fill="black"/>
</g>
</g>
<defs>
<filter id="filter0_di_6_2627" x="27" y="0.0625" width="288" height="101" filterUnits="userSpaceOnUse" color-interpolation-filters="sRGB">
<feFlood flood-opacity="0" result="BackgroundImageFix"/>
<feColorMatrix in="SourceAlpha" type="matrix" values="0 0 0 0 0 0 0 0 0 0 0 0 0 0 0 0 0 0 127 0" result="hardAlpha"/>
<feOffset dy="1"/>
<feComposite in2="hardAlpha" operator="out"/>
<feColorMatrix type="matrix" values="0 0 0 0 1 0 0 0 0 1 0 0 0 0 1 0 0 0 0.02 0"/>
<feBlend mode="normal" in2="BackgroundImageFix" result="effect1_dropShadow_6_2627"/>
<feBlend mode="normal" in="SourceGraphic" in2="effect1_dropShadow_6_2627" result="shape"/>
<feColorMatrix in="SourceAlpha" type="matrix" values="0 0 0 0 0 0 0 0 0 0 0 0 0 0 0 0 0 0 127 0" result="hardAlpha"/>
<feOffset dy="1"/>
<feGaussianBlur stdDeviation="0.5"/>
<feComposite in2="hardAlpha" operator="arithmetic" k2="-1" k3="1"/>
<feColorMatrix type="matrix" values="0 0 0 0 0 0 0 0 0 0 0 0 0 0 0 0 0 0 0.1 0"/>
<feBlend mode="normal" in2="shape" result="effect2_innerShadow_6_2627"/>
</filter>
<filter id="filter1_dii_6_2627" x="0" y="33.0625" width="342" height="104" filterUnits="userSpaceOnUse" color-interpolation-filters="sRGB">
<feFlood flood-opacity="0" result="BackgroundImageFix"/>
<feColorMatrix in="SourceAlpha" type="matrix" values="0 0 0 0 0 0 0 0 0 0 0 0 0 0 0 0 0 0 127 0" result="hardAlpha"/>
<feOffset dy="10"/>
<feGaussianBlur stdDeviation="13.5"/>
<feComposite in2="hardAlpha" operator="out"/>
<feColorMatrix type="matrix" values="0 0 0 0 0.980392 0 0 0 0 0.00392157 0 0 0 0 0.00392157 0 0 0 0.2 0"/>
<feBlend mode="normal" in2="BackgroundImageFix" result="effect1_dropShadow_6_2627"/>
<feBlend mode="normal" in="SourceGraphic" in2="effect1_dropShadow_6_2627" result="shape"/>
<feColorMatrix in="SourceAlpha" type="matrix" values="0 0 0 0 0 0 0 0 0 0 0 0 0 0 0 0 0 0 127 0" result="hardAlpha"/>
<feOffset dy="-2"/>
<feComposite in2="hardAlpha" operator="arithmetic" k2="-1" k3="1"/>
<feColorMatrix type="matrix" values="0 0 0 0 0.678431 0 0 0 0 0.211765 0 0 0 0 0.176471 0 0 0 1 0"/>
<feBlend mode="normal" in2="shape" result="effect2_innerShadow_6_2627"/>
<feColorMatrix in="SourceAlpha" type="matrix" values="0 0 0 0 0 0 0 0 0 0 0 0 0 0 0 0 0 0 127 0" result="hardAlpha"/>
<feOffset dy="2"/>
<feComposite in2="hardAlpha" operator="arithmetic" k2="-1" k3="1"/>
<feColorMatrix type="matrix" values="0 0 0 0 0.898039 0 0 0 0 0.337255 0 0 0 0 0.294118 0 0 0 1 0"/>
<feBlend mode="normal" in2="effect2_innerShadow_6_2627" result="effect3_innerShadow_6_2627"/>
</filter>
<clipPath id="clip0_6_2627">
<rect width="30" height="10.2857" fill="white" transform="translate(103.719 10.0625)"/>
</clipPath>
</defs>
</svg>
